#!OML:ASF E:\motion texture\Top Level 1\Subject 1\Session 1\male.ASF
:FULLY-SPECIFIED
:DEGREES
434
root -27.1132 17.763 3.33592 355.408 -84.066 -346.148
lowerback -0.210783 -2.74675 -1.1542
upperback -1.20982 -3.67386 3.0597
thorax -0.849873 -1.82834 3.80268
lowerneck -13.5149 -4.16043 -5.72593
upperneck 10.6667 -5.09218 4.23568
head 5.68901 -2.4085 1.808
rclavicle -1.44119e-014 3.26007e-014
rhumerus -49.3547 -29.3302 -53.173
rradius 13.7932
rwrist 35.8905
rhand -5.90038 -27.0585
rfingers 7.12502
rthumb 19.9281 -56.0567
lclavicle -1.44119e-014 3.26007e-014
lhumerus -47.4943 45.0822 46.7793
lradius 12.0422
lwrist -71.2279
lhand -10.9549 20.0381
lfingers 7.12502
lthumb 15.064 49.47
rfemur -36.0703 -3.83312 14.0436
rtibia 15.0377
rfoot -5.46496 -22.1599
rtoes 1.63758
lfemur -0.0261799 -3.4108 -22.8382
ltibia 14.4392
lfoot -15.6437 -1.25791
ltoes -7.73177
435
root -27.2538 17.7324 3.32075 354.808 -83.7301 -345.414
lowerback -0.342519 -2.76924 -1.29806
upperback -1.28405 -3.70323 3.01857
thorax -0.843845 -1.84105 3.83606
lowerneck -13.458 -4.20957 -5.74588
upperneck 10.6859 -5.16585 4.28441
head 5.69121 -2.44248 1.82044
rclavicle -1.94809e-014 8.74653e-015
rhumerus -47.4419 -28.7523 -54.8297
rradius 13.9737
rwrist 35.2075
rhand -6.37009 -27.0609
rfingers 7.12502
rthumb 19.4766 -56.1054
lclavicle -1.94809e-014 8.74653e-015
lhumerus -44.1719 44.5727 49.9682
lradius 12.2638
lwrist -69.547
lhand -11.8487 20.3368
lfingers 7.12502
lthumb 14.2028 49.8313
rfemur -35.7098 -2.43042 12.8913
rtibia 12.7225
rfoot -5.6253 -23.6927
rtoes 0.817631
lfemur 0.316394 -3.39955 -22.8334
ltibia 14.4782
lfoot -15.9427 -1.61141
ltoes -8.09931
436
root -27.3952 17.7017 3.30453 354.474 -83.3998 -344.952
lowerback -0.460723 -2.78901 -1.41905
upperback -1.36346 -3.72877 2.98283
thorax -0.85203 -1.85181 3.86308
lowerneck -13.4053 -4.25853 -5.76778
upperneck 10.7148 -5.23994 4.33925
head 5.69744 -2.47629 1.83497
rclavicle -5.96354e-015 2.46493e-014
rhumerus -45.5377 -28.0954 -56.4593
rradius 14.2026
rwrist 34.3448
rhand -6.83561 -27.1085
rfingers 7.12502
rthumb 19.0289 -56.1976
lclavicle -5.96354e-015 2.46493e-014
lhumerus -40.7859 43.7116 53.3017
lradius 12.5469
lwrist -67.4492
lhand -12.7072 20.6707
lfingers 7.12502
lthumb 13.3754 50.2213
rfemur -35.4867 -1.16565 11.8342
rtibia 10.9286
rfoot -5.78033 -25.2916
rtoes 0.625432
lfemur 0.640224 -3.40719 -22.7855
ltibia 14.5536
lfoot -16.2273 -1.96112
ltoes -8.48953
437
root -27.5373 17.6713 3.28749 354.348 -83.092 -344.714
lowerback -0.554081 -2.80306 -1.51378
upperback -1.44451 -3.74662 2.95219
thorax -0.877695 -1.85868 3.8821
lowerneck -13.3597 -4.30789 -5.78612
upperneck 10.7571 -5.31532 4.39321
head 5.7091 -2.51057 1.84834
rclavicle -1.59028e-014 4.45278e-014
rhumerus -43.6562 -27.4002 -58.0189
rradius 14.4649
rwrist 33.3786
rhand -7.28996 -27.1943
rfingers 7.12502
rthumb 18.5919 -56.3259
lclavicle -1.59028e-014 4.45278e-014
lhumerus -37.4336 42.5106 56.6664
lradius 12.9019
lwrist -64.9613
lhand -13.5268 21.0088
lfingers 7.12502
lthumb 12.5853 50.6097
rfemur -35.4334 -0.271909 11.0298
rtibia 9.77712
rfoot -5.95646 -26.5811
rtoes 1.0727
lfemur 0.957218 -3.43948 -22.699
ltibia 14.6655
lfoot -16.4932 -2.28598
ltoes -8.91335
438
root -27.6802 17.6414 3.26989 354.375 -82.8271 -344.645
lowerback -0.626087 -2.80728 -1.5829
upperback -1.5248 -3.75144 2.92789
thorax -0.916744 -1.85908 3.89458
lowerneck -13.3256 -4.35536 -5.8078
upperneck 10.8175 -5.38863 4.45407
head 5.72858 -2.54334 1.86433
rclavicle 1.63003e-014 -2.8625e-014
rhumerus -41.809 -26.7127 -59.4743
rradius 14.7559
rwrist 32.3521
rhand -7.7754 -27.2974
rfingers 7.12502
rthumb 18.1249 -56.4729
lclavicle 1.63003e-014 -2.8625e-014
lhumerus -34.2172 41.0265 59.9373
lradius 13.3286
lwrist -62.1722
lhand -14.3244 21.3276
lfingers 7.12502
lthumb 11.8163 50.9742
rfemur -35.5761 0.0586917 10.6171
rtibia 9.34362
rfoot -6.09669 -27.2587
rtoes 1.97238
lfemur 1.27001 -3.49311 -22.5806
ltibia 14.8144
lfoot -16.7426 -2.56714
ltoes -9.3968
439
root -27.8242 17.6123 3.25198 354.447 -82.601 -344.642
lowerback -0.670747 -2.80189 -1.63395
upperback -1.60988 -3.74354 2.90574
thorax -0.97804 -1.85288 3.90095
lowerneck -13.2847 -4.40167 -5.83581
upperneck 10.8963 -5.46125 4.52025
head 5.75313 -2.57579 1.88308
rclavicle 3.67752e-015 7.95139e-015
rhumerus -40.0084 -26.0227 -60.8308
rradius 15.0795
rwrist 31.2512
rhand -8.30876 -27.3982
rfingers 7.12502
rthumb 17.6117 -56.6206
lclavicle 3.67752e-015 7.95139e-015
lhumerus -31.2092 39.2948 63.0343
lradius 13.8292
lwrist -59.1317
lhand -15.0806 21.6081
lfingers 7.12502
lthumb 11.087 51.2953
rfemur -35.8872 -0.198947 10.6131
rtibia 9.59518
rfoot -6.19132 -27.18
rtoes 3.08284
lfemur 1.587 -3.5759 -22.4518
ltibia 15.0007
lfoot -16.9726 -2.79851
ltoes -9.95352
440
root -27.9705 17.5843 3.23401 354.501 -82.4139 -344.655
lowerback -0.690248 -2.7877 -1.67226
upperback -1.68718 -3.72409 2.88497
thorax -1.0471 -1.84094 3.90284
lowerneck -13.257 -4.44496 -5.87176
upperneck 10.9967 -5.52947 4.59278
head 5.7869 -2.60578 1.90518
rclavicle 6.4605e-015 -7.95139e-015
rhumerus -38.2433 -25.3669 -62.0775
rradius 15.4233
rwrist 30.1008
rhand -8.89135 -27.4703
rfingers 7.12502
rthumb 17.051 -56.742
lclavicle 6.4605e-015 -7.95139e-015
lhumerus -28.4318 37.4036 65.9116
lradius 14.3976
lwrist -55.9172
lhand -15.7922 21.8488
lfingers 7.12502
lthumb 10.4006 51.5716
rfemur -36.3046 -0.877549 10.9304
rtibia 10.4173
rfoot -6.28156 -26.4289
rtoes 4.30014
lfemur 1.93264 -3.68878 -22.3287
ltibia 15.218
lfoot -17.1812 -2.97528
ltoes -10.6218
441
root -28.1197 17.5578 3.21666 354.391 -82.2574 -344.54
lowerback -0.701809 -2.76909 -1.71543
upperback -1.74462 -3.69884 2.86057
thorax -1.10059 -1.82641 3.90345
lowerneck -13.2679 -4.48576 -5.90969
upperneck 11.1306 -5.59234 4.65935
head 5.83743 -2.63308 1.92535
rclavicle 2.41523e-014 -2.62396e-014
rhumerus -36.497 -24.7611 -63.2251
rradius 15.7863
rwrist 28.9077
rhand -9.50052 -27.5515
rfingers 7.12502
rthumb 16.4646 -56.8729
lclavicle 2.41523e-014 -2.62396e-014
lhumerus -25.8775 35.403 68.5643
lradius 15.0292
lwrist -52.5751
lhand -16.4248 22.0644
lfingers 7.12502
lthumb 9.79031 51.8168
rfemur -36.7597 -1.77142 11.4212
rtibia 11.6472
rfoot -6.45314 -25.177
rtoes 5.58062
lfemur 2.31954 -3.83066 -22.247
ltibia 15.462
lfoot -17.3637 -3.09933
ltoes -11.4031
442
root -28.2732 17.5331 3.1993 354.177 -82.1156 -344.363
lowerback -0.697523 -2.75019 -1.76159
upperback -1.79053 -3.67333 2.83293
thorax -1.15119 -1.8118 3.90285
lowerneck -13.3001 -4.52165 -5.94047
upperneck 11.2955 -5.64853 4.71394
head 5.90045 -2.65737 1.94066
rclavicle -5.1684e-015 1.90833e-014
rhumerus -34.7854 -24.1897 -64.2865
rradius 16.1715
rwrist 27.6638
rhand -10.0924 -27.6331
rfingers 7.12502
rthumb 15.8946 -57.0008
lclavicle -5.1684e-015 1.90833e-014
lhumerus -23.5723 33.2957 70.9803
lradius 15.7321
lwrist -49.1475
lhand -17.0211 22.2413
lfingers 7.12502
lthumb 9.21501 52.0199
rfemur -37.1728 -2.65416 11.9485
rtibia 13.0978
rfoot -6.66259 -23.7629
rtoes 7.03162
lfemur 2.75816 -4.00299 -22.1962
ltibia 15.7276
lfoot -17.5142 -3.18568
ltoes -12.2527
443
root -28.4307 17.5102 3.1814 353.89 -81.9864 -344.147
lowerback -0.687652 -2.73208 -1.81791
upperback -1.82131 -3.64898 2.80735
thorax -1.18854 -1.79796 3.90981
lowerneck -13.3563 -4.55215 -5.96428
upperneck 11.4788 -5.69625 4.75445
head 5.97239 -2.67786 1.95066
rclavicle -3.47873e-015 7.15625e-015
rhumerus -33.0988 -23.6128 -65.2907
rradius 16.6004
rwrist 26.3462
rhand -10.6277 -27.7569
rfingers 7.12502
rthumb 15.3791 -57.1649
lclavicle -3.47873e-015 7.15625e-015
lhumerus -21.4905 31.1268 73.1824
lradius 16.504
lwrist -45.6436
lhand -17.6063 22.3787
lfingers 7.12502
lthumb 8.65031 52.1815
rfemur -37.5087 -3.38931 12.4183
rtibia 14.6108
rfoot -6.75989 -22.3726
rtoes 8.66825
lfemur 3.23171 -4.20201 -22.1697
ltibia 16.0263
lfoot -17.6222 -3.2402
ltoes -13.168
